<mxfile host="app.diagrams.net" modified="2024-01-31T10:34:49.655Z" agent="Mozilla/5.0 (Windows NT 10.0; Win64; x64) AppleWebKit/537.36 (KHTML, like Gecko) Chrome/120.0.0.0 YaBrowser/24.1.0.0 Safari/537.36" etag="LvoNmbqJvCJ3FeqzfWPD" version="23.0.2" type="device">
  <diagram name="Страница — 1" id="pOu9YwyU2xej80XPLB-o">
    <mxGraphModel dx="1386" dy="801" grid="1" gridSize="10" guides="1" tooltips="1" connect="1" arrows="1" fold="1" page="1" pageScale="1" pageWidth="827" pageHeight="1169" math="0" shadow="0">
      <root>
        <mxCell id="0" />
        <mxCell id="1" parent="0" />
        <mxCell id="xbSZaqq2IWllJwp0Z0a--16" style="edgeStyle=orthogonalEdgeStyle;rounded=0;orthogonalLoop=1;jettySize=auto;html=1;entryX=0;entryY=0.5;entryDx=0;entryDy=0;" edge="1" parent="1" source="xbSZaqq2IWllJwp0Z0a--1" target="xbSZaqq2IWllJwp0Z0a--6">
          <mxGeometry relative="1" as="geometry" />
        </mxCell>
        <mxCell id="xbSZaqq2IWllJwp0Z0a--1" value="Player" style="shape=umlActor;verticalLabelPosition=bottom;verticalAlign=top;html=1;outlineConnect=0;" vertex="1" parent="1">
          <mxGeometry x="70" y="270" width="30" height="60" as="geometry" />
        </mxCell>
        <mxCell id="xbSZaqq2IWllJwp0Z0a--4" value="" style="rounded=0;whiteSpace=wrap;html=1;fillColor=none;" vertex="1" parent="1">
          <mxGeometry x="130" y="30" width="750" height="660" as="geometry" />
        </mxCell>
        <mxCell id="xbSZaqq2IWllJwp0Z0a--5" value="PAC-MAN" style="text;html=1;strokeColor=none;fillColor=none;align=center;verticalAlign=middle;whiteSpace=wrap;rounded=0;" vertex="1" parent="1">
          <mxGeometry x="140" y="50" width="60" height="30" as="geometry" />
        </mxCell>
        <mxCell id="xbSZaqq2IWllJwp0Z0a--19" style="edgeStyle=orthogonalEdgeStyle;rounded=0;orthogonalLoop=1;jettySize=auto;html=1;entryX=0;entryY=0.5;entryDx=0;entryDy=0;" edge="1" parent="1" source="xbSZaqq2IWllJwp0Z0a--6" target="xbSZaqq2IWllJwp0Z0a--17">
          <mxGeometry relative="1" as="geometry" />
        </mxCell>
        <mxCell id="xbSZaqq2IWllJwp0Z0a--6" value="" style="ellipse;whiteSpace=wrap;html=1;" vertex="1" parent="1">
          <mxGeometry x="160" y="265" width="80" height="70" as="geometry" />
        </mxCell>
        <mxCell id="xbSZaqq2IWllJwp0Z0a--7" value="Load game" style="text;html=1;strokeColor=none;fillColor=none;align=center;verticalAlign=middle;whiteSpace=wrap;rounded=0;" vertex="1" parent="1">
          <mxGeometry x="170" y="285" width="60" height="30" as="geometry" />
        </mxCell>
        <mxCell id="xbSZaqq2IWllJwp0Z0a--8" value="" style="ellipse;whiteSpace=wrap;html=1;aspect=fixed;" vertex="1" parent="1">
          <mxGeometry x="370" y="260" width="80" height="80" as="geometry" />
        </mxCell>
        <mxCell id="xbSZaqq2IWllJwp0Z0a--9" value="Change movement" style="text;html=1;strokeColor=none;fillColor=none;align=center;verticalAlign=middle;whiteSpace=wrap;rounded=0;" vertex="1" parent="1">
          <mxGeometry x="380" y="285" width="60" height="30" as="geometry" />
        </mxCell>
        <mxCell id="xbSZaqq2IWllJwp0Z0a--29" style="edgeStyle=orthogonalEdgeStyle;rounded=0;orthogonalLoop=1;jettySize=auto;html=1;entryX=0;entryY=0.5;entryDx=0;entryDy=0;" edge="1" parent="1" source="xbSZaqq2IWllJwp0Z0a--17" target="xbSZaqq2IWllJwp0Z0a--8">
          <mxGeometry relative="1" as="geometry" />
        </mxCell>
        <mxCell id="xbSZaqq2IWllJwp0Z0a--37" style="edgeStyle=orthogonalEdgeStyle;rounded=0;orthogonalLoop=1;jettySize=auto;html=1;entryX=0.5;entryY=0;entryDx=0;entryDy=0;" edge="1" parent="1" source="xbSZaqq2IWllJwp0Z0a--17" target="xbSZaqq2IWllJwp0Z0a--35">
          <mxGeometry relative="1" as="geometry" />
        </mxCell>
        <mxCell id="xbSZaqq2IWllJwp0Z0a--40" style="edgeStyle=orthogonalEdgeStyle;rounded=0;orthogonalLoop=1;jettySize=auto;html=1;entryX=0.5;entryY=1;entryDx=0;entryDy=0;" edge="1" parent="1" source="xbSZaqq2IWllJwp0Z0a--17" target="xbSZaqq2IWllJwp0Z0a--38">
          <mxGeometry relative="1" as="geometry" />
        </mxCell>
        <mxCell id="xbSZaqq2IWllJwp0Z0a--17" value="" style="ellipse;whiteSpace=wrap;html=1;aspect=fixed;" vertex="1" parent="1">
          <mxGeometry x="260" y="260" width="80" height="80" as="geometry" />
        </mxCell>
        <mxCell id="xbSZaqq2IWllJwp0Z0a--18" value="Play game" style="text;html=1;strokeColor=none;fillColor=none;align=center;verticalAlign=middle;whiteSpace=wrap;rounded=0;" vertex="1" parent="1">
          <mxGeometry x="270" y="285" width="60" height="30" as="geometry" />
        </mxCell>
        <mxCell id="xbSZaqq2IWllJwp0Z0a--25" style="edgeStyle=orthogonalEdgeStyle;rounded=0;orthogonalLoop=1;jettySize=auto;html=1;entryX=0.5;entryY=1;entryDx=0;entryDy=0;" edge="1" parent="1" source="xbSZaqq2IWllJwp0Z0a--20" target="xbSZaqq2IWllJwp0Z0a--8">
          <mxGeometry relative="1" as="geometry" />
        </mxCell>
        <mxCell id="xbSZaqq2IWllJwp0Z0a--20" value="" style="ellipse;whiteSpace=wrap;html=1;aspect=fixed;" vertex="1" parent="1">
          <mxGeometry x="470" y="420" width="60" height="60" as="geometry" />
        </mxCell>
        <mxCell id="xbSZaqq2IWllJwp0Z0a--26" style="edgeStyle=orthogonalEdgeStyle;rounded=0;orthogonalLoop=1;jettySize=auto;html=1;entryX=1;entryY=1;entryDx=0;entryDy=0;" edge="1" parent="1" source="xbSZaqq2IWllJwp0Z0a--21" target="xbSZaqq2IWllJwp0Z0a--8">
          <mxGeometry relative="1" as="geometry" />
        </mxCell>
        <mxCell id="xbSZaqq2IWllJwp0Z0a--21" value="" style="ellipse;whiteSpace=wrap;html=1;aspect=fixed;" vertex="1" parent="1">
          <mxGeometry x="510" y="330" width="60" height="60" as="geometry" />
        </mxCell>
        <mxCell id="xbSZaqq2IWllJwp0Z0a--22" value="" style="ellipse;whiteSpace=wrap;html=1;aspect=fixed;" vertex="1" parent="1">
          <mxGeometry x="510" y="220" width="60" height="60" as="geometry" />
        </mxCell>
        <mxCell id="xbSZaqq2IWllJwp0Z0a--28" style="edgeStyle=orthogonalEdgeStyle;rounded=0;orthogonalLoop=1;jettySize=auto;html=1;" edge="1" parent="1" source="xbSZaqq2IWllJwp0Z0a--23" target="xbSZaqq2IWllJwp0Z0a--8">
          <mxGeometry relative="1" as="geometry" />
        </mxCell>
        <mxCell id="xbSZaqq2IWllJwp0Z0a--23" value="" style="ellipse;whiteSpace=wrap;html=1;aspect=fixed;" vertex="1" parent="1">
          <mxGeometry x="470" y="140" width="60" height="60" as="geometry" />
        </mxCell>
        <mxCell id="xbSZaqq2IWllJwp0Z0a--27" style="edgeStyle=orthogonalEdgeStyle;rounded=0;orthogonalLoop=1;jettySize=auto;html=1;entryX=0.975;entryY=0.275;entryDx=0;entryDy=0;entryPerimeter=0;" edge="1" parent="1" source="xbSZaqq2IWllJwp0Z0a--22" target="xbSZaqq2IWllJwp0Z0a--8">
          <mxGeometry relative="1" as="geometry" />
        </mxCell>
        <mxCell id="xbSZaqq2IWllJwp0Z0a--31" value="Right" style="text;html=1;strokeColor=none;fillColor=none;align=center;verticalAlign=middle;whiteSpace=wrap;rounded=0;" vertex="1" parent="1">
          <mxGeometry x="470" y="155" width="60" height="30" as="geometry" />
        </mxCell>
        <mxCell id="xbSZaqq2IWllJwp0Z0a--32" value="Down" style="text;html=1;strokeColor=none;fillColor=none;align=center;verticalAlign=middle;whiteSpace=wrap;rounded=0;" vertex="1" parent="1">
          <mxGeometry x="470" y="435" width="60" height="30" as="geometry" />
        </mxCell>
        <mxCell id="xbSZaqq2IWllJwp0Z0a--33" value="Up" style="text;html=1;strokeColor=none;fillColor=none;align=center;verticalAlign=middle;whiteSpace=wrap;rounded=0;" vertex="1" parent="1">
          <mxGeometry x="510" y="345" width="60" height="30" as="geometry" />
        </mxCell>
        <mxCell id="xbSZaqq2IWllJwp0Z0a--34" value="Left" style="text;html=1;strokeColor=none;fillColor=none;align=center;verticalAlign=middle;whiteSpace=wrap;rounded=0;" vertex="1" parent="1">
          <mxGeometry x="510" y="235" width="60" height="30" as="geometry" />
        </mxCell>
        <mxCell id="xbSZaqq2IWllJwp0Z0a--35" value="" style="ellipse;whiteSpace=wrap;html=1;aspect=fixed;" vertex="1" parent="1">
          <mxGeometry x="280" y="375" width="80" height="80" as="geometry" />
        </mxCell>
        <mxCell id="xbSZaqq2IWllJwp0Z0a--36" value="Score" style="text;html=1;strokeColor=none;fillColor=none;align=center;verticalAlign=middle;whiteSpace=wrap;rounded=0;" vertex="1" parent="1">
          <mxGeometry x="290" y="400" width="60" height="30" as="geometry" />
        </mxCell>
        <mxCell id="xbSZaqq2IWllJwp0Z0a--38" value="" style="ellipse;whiteSpace=wrap;html=1;aspect=fixed;" vertex="1" parent="1">
          <mxGeometry x="280" y="80" width="80" height="80" as="geometry" />
        </mxCell>
        <mxCell id="xbSZaqq2IWllJwp0Z0a--41" style="edgeStyle=orthogonalEdgeStyle;rounded=0;orthogonalLoop=1;jettySize=auto;html=1;" edge="1" parent="1" source="xbSZaqq2IWllJwp0Z0a--39" target="xbSZaqq2IWllJwp0Z0a--6">
          <mxGeometry relative="1" as="geometry" />
        </mxCell>
        <mxCell id="xbSZaqq2IWllJwp0Z0a--39" value="Death" style="text;html=1;strokeColor=none;fillColor=none;align=center;verticalAlign=middle;whiteSpace=wrap;rounded=0;" vertex="1" parent="1">
          <mxGeometry x="290" y="105" width="60" height="30" as="geometry" />
        </mxCell>
      </root>
    </mxGraphModel>
  </diagram>
</mxfile>
